<?xml version="1.0" ?><svg id="Layer_1" style="enable-background:new 0 0 24 24;" version="1.1" viewBox="0 0 24 24" xml:space="preserve" xmlns="http://www.w3.org/2000/svg" xmlns:xlink="http://www.w3.org/1999/xlink"><title/><g id="Star_2"><g><path d="M23.992,4.85c-0.06-0.193-0.229-0.331-0.43-0.35L18.812,4l-1.87-3.72    c-0.149-0.246-0.468-0.325-0.714-0.176c-0.072,0.044-0.132,0.104-0.176,0.176L14.172,4l-4.73,0.5    C9.167,4.529,8.968,4.776,8.998,5.05c0.013,0.123,0.072,0.237,0.164,0.32l3.76,3.29l-1.41,4.69    c-0.078,0.265,0.073,0.543,0.338,0.621c0.128,0.038,0.265,0.023,0.382-0.041l4.26-2.37l4.26,2.37    c0.073,0.044,0.155,0.068,0.24,0.07l0,0c0.27,0.011,0.499-0.199,0.51-0.469c0-0.01,0.001-0.02,0-0.031    c0-0.096-0.027-0.19-0.08-0.27l-1.36-4.57l3.76-3.29C23.977,5.246,24.043,5.042,23.992,4.85z" style="fill:#303C42;"/><path d="M10.552,13.07l1.13-3.77c0.056-0.188-0.002-0.391-0.15-0.52L9.992,7.4    c-0.148-0.131-0.36-0.163-0.54-0.08c-9.58,4.4-9.46,11.88-9.46,12.19c-0.015,0.276,0.196,0.512,0.471,0.527    C0.538,20.041,0.613,20.029,0.682,20l4.31-1.77c0.07,1.3,0.44,4,2.14,5.63c0.191,0.2,0.507,0.207,0.707,0.016    c0.09-0.086,0.144-0.202,0.153-0.326c0,0,0.51-5,3-8.35c0.16-0.187,0.16-0.463,0-0.65C10.581,14.177,10.411,13.607,10.552,13.07z" style="fill:#303C42;"/></g></g></svg>